<mxfile host="Electron" agent="Mozilla/5.0 (Macintosh; Intel Mac OS X 10_15_7) AppleWebKit/537.36 (KHTML, like Gecko) draw.io/26.2.15 Chrome/134.0.6998.205 Electron/35.2.1 Safari/537.36" version="26.2.15">
  <diagram name="Page-1" id="6gULVhWcurzz5zKnDaAR">
    <mxGraphModel dx="833" dy="921" grid="1" gridSize="10" guides="1" tooltips="1" connect="1" arrows="1" fold="1" page="1" pageScale="1" pageWidth="1169" pageHeight="827" math="0" shadow="0">
      <root>
        <mxCell id="0" />
        <mxCell id="1" parent="0" />
        <mxCell id="_o5h41joDnnrQmcQaRRM-24" value="" style="rounded=1;whiteSpace=wrap;html=1;fontSize=16;fillColor=none;dashed=1;labelBackgroundColor=none;" parent="1" vertex="1">
          <mxGeometry x="557.5" y="560" width="229.99" height="250" as="geometry" />
        </mxCell>
        <UserObject label="&lt;font style=&quot;&quot;&gt;&lt;span style=&quot;font-size: 20px;&quot;&gt;Cryptosuites&lt;/span&gt;&lt;br&gt;&lt;/font&gt;" link="https://www.w3.org/TR/vc-json-schema/" linkTarget="_blank" id="r7VOtmBWi9sTdI5Oyx6i-7">
          <mxCell style="rounded=1;whiteSpace=wrap;html=1;fontSize=16;labelBackgroundColor=none;fillColor=none;" parent="1" vertex="1">
            <mxGeometry x="30.000000000000007" y="430" width="164.99" height="60" as="geometry" />
          </mxCell>
        </UserObject>
        <mxCell id="93ff02_V0kyTorA4kfXp-3" style="edgeStyle=none;curved=1;rounded=0;orthogonalLoop=1;jettySize=auto;html=1;exitX=0.5;exitY=1;exitDx=0;exitDy=0;fontSize=12;startSize=8;endSize=8;" parent="1" edge="1">
          <mxGeometry relative="1" as="geometry">
            <mxPoint x="366" y="300" as="sourcePoint" />
            <mxPoint x="366" y="300" as="targetPoint" />
          </mxGeometry>
        </mxCell>
        <UserObject label="&lt;font style=&quot;&quot;&gt;&lt;span style=&quot;font-size: 20px;&quot;&gt;EdDSA&lt;/span&gt;&lt;br&gt;&lt;/font&gt;&lt;div&gt;&lt;font style=&quot;font-size: 13px;&quot;&gt;based on Edwards curves&lt;/font&gt;&lt;/div&gt;" linkTarget="_blank" id="_o5h41joDnnrQmcQaRRM-1">
          <mxCell style="rounded=1;whiteSpace=wrap;html=1;fontSize=16;labelBackgroundColor=none;fillColor=none;" parent="1" vertex="1">
            <mxGeometry x="305" y="209" width="164.99" height="60" as="geometry" />
          </mxCell>
        </UserObject>
        <UserObject label="&lt;div&gt;&lt;font style=&quot;font-size: 20px;&quot;&gt;ECDSA&lt;/font&gt;&lt;/div&gt;&lt;div&gt;&lt;font style=&quot;font-size: 13px;&quot;&gt;based on ECDSA curves&lt;/font&gt;&lt;/div&gt;" linkTarget="_blank" id="_o5h41joDnnrQmcQaRRM-2">
          <mxCell style="rounded=1;whiteSpace=wrap;html=1;fontSize=16;labelBackgroundColor=none;fillColor=none;" parent="1" vertex="1">
            <mxGeometry x="305" y="479" width="164.99" height="60" as="geometry" />
          </mxCell>
        </UserObject>
        <UserObject label="&lt;div&gt;&lt;span style=&quot;background-color: initial; font-size: 20px;&quot;&gt;BBS&lt;/span&gt;&lt;/div&gt;&lt;div&gt;&lt;span style=&quot;background-color: initial; font-size: 13px;&quot;&gt;based on BBS schemes&lt;/span&gt;&lt;/div&gt;" linkTarget="_blank" id="_o5h41joDnnrQmcQaRRM-3">
          <mxCell style="rounded=1;whiteSpace=wrap;html=1;fontSize=16;labelBackgroundColor=none;fillColor=none;" parent="1" vertex="1">
            <mxGeometry x="305" y="695" width="164.99" height="60" as="geometry" />
          </mxCell>
        </UserObject>
        <UserObject label="&lt;div&gt;&lt;span style=&quot;background-color: initial; font-size: 20px;&quot;&gt;bbs-2023&lt;/span&gt;&lt;/div&gt;&lt;div&gt;&lt;span style=&quot;font-size: 13px; background-color: initial;&quot;&gt;using RDFC-1.0 for canonicalization&lt;/span&gt;&lt;/div&gt;" linkTarget="_blank" id="_o5h41joDnnrQmcQaRRM-9">
          <mxCell style="rounded=1;whiteSpace=wrap;html=1;fontSize=16;labelBackgroundColor=none;fillColor=none;flipV=1;" parent="1" vertex="1">
            <mxGeometry x="590" y="690" width="164.99" height="70" as="geometry" />
          </mxCell>
        </UserObject>
        <UserObject label="&lt;div&gt;&lt;span style=&quot;background-color: initial; font-size: 20px;&quot;&gt;eddsa-rdfc-2022&lt;/span&gt;&lt;/div&gt;&lt;div&gt;&lt;span style=&quot;font-size: 13px; background-color: initial;&quot;&gt;using RDFC-1.0 for canonicalization&lt;/span&gt;&lt;br&gt;&lt;/div&gt;" linkTarget="_blank" id="_o5h41joDnnrQmcQaRRM-4">
          <mxCell style="rounded=1;whiteSpace=wrap;html=1;fontSize=16;labelBackgroundColor=none;fillColor=none;flipV=1;" parent="1" vertex="1">
            <mxGeometry x="590" y="150" width="164.99" height="70" as="geometry" />
          </mxCell>
        </UserObject>
        <UserObject label="&lt;div&gt;&lt;span style=&quot;background-color: initial; font-size: 20px;&quot;&gt;eddsa-jcs-2022&lt;/span&gt;&lt;/div&gt;&lt;div&gt;&lt;span style=&quot;font-size: 13px; background-color: initial;&quot;&gt;using JCS for canonicalization&lt;/span&gt;&lt;br&gt;&lt;/div&gt;" linkTarget="_blank" id="_o5h41joDnnrQmcQaRRM-5">
          <mxCell style="rounded=1;whiteSpace=wrap;html=1;fontSize=16;labelBackgroundColor=none;fillColor=none;flipV=1;" parent="1" vertex="1">
            <mxGeometry x="590" y="258" width="164.99" height="70" as="geometry" />
          </mxCell>
        </UserObject>
        <UserObject label="&lt;div&gt;&lt;span style=&quot;background-color: initial; font-size: 20px;&quot;&gt;ecdsa-rdfc-2019&lt;/span&gt;&lt;/div&gt;&lt;div&gt;&lt;span style=&quot;font-size: 13px; background-color: initial;&quot;&gt;using RDFC-1.0 for canonicalization&lt;/span&gt;&lt;br&gt;&lt;/div&gt;" linkTarget="_blank" id="_o5h41joDnnrQmcQaRRM-6">
          <mxCell style="rounded=1;whiteSpace=wrap;html=1;fontSize=16;labelBackgroundColor=none;fillColor=none;flipV=1;" parent="1" vertex="1">
            <mxGeometry x="590" y="366" width="164.99" height="70" as="geometry" />
          </mxCell>
        </UserObject>
        <UserObject label="&lt;div&gt;&lt;span style=&quot;background-color: initial; font-size: 20px;&quot;&gt;ecdsa-jcs-2019&lt;/span&gt;&lt;/div&gt;&lt;div&gt;&lt;span style=&quot;font-size: 13px; background-color: initial;&quot;&gt;using JCS for canonicalization&lt;/span&gt;&lt;br&gt;&lt;/div&gt;" linkTarget="_blank" id="_o5h41joDnnrQmcQaRRM-7">
          <mxCell style="rounded=1;whiteSpace=wrap;html=1;fontSize=16;labelBackgroundColor=none;fillColor=none;flipV=1;" parent="1" vertex="1">
            <mxGeometry x="590" y="474" width="164.99" height="70" as="geometry" />
          </mxCell>
        </UserObject>
        <UserObject label="&lt;div&gt;&lt;span style=&quot;background-color: initial; font-size: 20px;&quot;&gt;ecdsa-sd-2023&lt;/span&gt;&lt;/div&gt;&lt;div&gt;&lt;span style=&quot;font-size: 13px; background-color: initial;&quot;&gt;using RDFC-1.0 for canonicalization&lt;/span&gt;&lt;/div&gt;" linkTarget="_blank" id="_o5h41joDnnrQmcQaRRM-8">
          <mxCell style="rounded=1;whiteSpace=wrap;html=1;fontSize=16;labelBackgroundColor=none;fillColor=none;flipV=1;" parent="1" vertex="1">
            <mxGeometry x="590" y="582" width="164.99" height="70" as="geometry" />
          </mxCell>
        </UserObject>
        <mxCell id="_o5h41joDnnrQmcQaRRM-15" value="" style="edgeStyle=elbowEdgeStyle;elbow=horizontal;endArrow=classic;html=1;curved=0;rounded=1;endSize=8;startSize=8;fontSize=12;entryX=0;entryY=0.5;entryDx=0;entryDy=0;exitX=1;exitY=0.5;exitDx=0;exitDy=0;labelBackgroundColor=none;fontColor=default;" parent="1" source="r7VOtmBWi9sTdI5Oyx6i-7" target="_o5h41joDnnrQmcQaRRM-1" edge="1">
          <mxGeometry width="50" height="50" relative="1" as="geometry">
            <mxPoint x="245.49" y="312" as="sourcePoint" />
            <mxPoint x="-20.50999999999999" y="274" as="targetPoint" />
            <Array as="points">
              <mxPoint x="250" y="350" />
            </Array>
          </mxGeometry>
        </mxCell>
        <mxCell id="_o5h41joDnnrQmcQaRRM-16" value="" style="edgeStyle=elbowEdgeStyle;elbow=horizontal;endArrow=classic;html=1;curved=0;rounded=1;endSize=8;startSize=8;fontSize=12;entryX=0;entryY=0.5;entryDx=0;entryDy=0;exitX=1;exitY=0.5;exitDx=0;exitDy=0;labelBackgroundColor=none;fontColor=default;" parent="1" source="r7VOtmBWi9sTdI5Oyx6i-7" target="_o5h41joDnnrQmcQaRRM-2" edge="1">
          <mxGeometry width="50" height="50" relative="1" as="geometry">
            <mxPoint x="205" y="470" as="sourcePoint" />
            <mxPoint x="315" y="249" as="targetPoint" />
            <Array as="points">
              <mxPoint x="250" y="490" />
            </Array>
          </mxGeometry>
        </mxCell>
        <mxCell id="_o5h41joDnnrQmcQaRRM-17" value="" style="edgeStyle=elbowEdgeStyle;elbow=horizontal;endArrow=classic;html=1;curved=0;rounded=1;endSize=8;startSize=8;fontSize=12;entryX=0;entryY=0.5;entryDx=0;entryDy=0;exitX=1;exitY=0.5;exitDx=0;exitDy=0;labelBackgroundColor=none;fontColor=default;" parent="1" source="r7VOtmBWi9sTdI5Oyx6i-7" target="_o5h41joDnnrQmcQaRRM-3" edge="1">
          <mxGeometry width="50" height="50" relative="1" as="geometry">
            <mxPoint x="205" y="470" as="sourcePoint" />
            <mxPoint x="315" y="519" as="targetPoint" />
            <Array as="points">
              <mxPoint x="250" y="590" />
            </Array>
          </mxGeometry>
        </mxCell>
        <mxCell id="_o5h41joDnnrQmcQaRRM-18" value="" style="edgeStyle=elbowEdgeStyle;elbow=horizontal;endArrow=classic;html=1;curved=0;rounded=1;endSize=8;startSize=8;fontSize=12;entryX=0;entryY=0.5;entryDx=0;entryDy=0;exitX=1;exitY=0.5;exitDx=0;exitDy=0;labelBackgroundColor=none;fontColor=default;" parent="1" source="_o5h41joDnnrQmcQaRRM-1" target="_o5h41joDnnrQmcQaRRM-4" edge="1">
          <mxGeometry width="50" height="50" relative="1" as="geometry">
            <mxPoint x="920" y="436" as="sourcePoint" />
            <mxPoint x="1030" y="215" as="targetPoint" />
            <Array as="points">
              <mxPoint x="530" y="210" />
            </Array>
          </mxGeometry>
        </mxCell>
        <mxCell id="_o5h41joDnnrQmcQaRRM-19" value="" style="edgeStyle=elbowEdgeStyle;elbow=horizontal;endArrow=classic;html=1;curved=0;rounded=1;endSize=8;startSize=8;fontSize=12;entryX=0;entryY=0.5;entryDx=0;entryDy=0;exitX=1;exitY=0.5;exitDx=0;exitDy=0;labelBackgroundColor=none;fontColor=default;" parent="1" source="_o5h41joDnnrQmcQaRRM-1" target="_o5h41joDnnrQmcQaRRM-5" edge="1">
          <mxGeometry width="50" height="50" relative="1" as="geometry">
            <mxPoint x="480" y="249" as="sourcePoint" />
            <mxPoint x="600" y="195" as="targetPoint" />
            <Array as="points">
              <mxPoint x="530" y="270" />
            </Array>
          </mxGeometry>
        </mxCell>
        <mxCell id="_o5h41joDnnrQmcQaRRM-20" value="" style="edgeStyle=elbowEdgeStyle;elbow=horizontal;endArrow=classic;html=1;curved=0;rounded=1;endSize=8;startSize=8;fontSize=12;entryX=0;entryY=0.5;entryDx=0;entryDy=0;labelBackgroundColor=none;fontColor=default;exitX=1;exitY=0.5;exitDx=0;exitDy=0;" parent="1" source="_o5h41joDnnrQmcQaRRM-2" target="_o5h41joDnnrQmcQaRRM-6" edge="1">
          <mxGeometry width="50" height="50" relative="1" as="geometry">
            <mxPoint x="480" y="510" as="sourcePoint" />
            <mxPoint x="609.99" y="460" as="targetPoint" />
            <Array as="points">
              <mxPoint x="530" y="460" />
            </Array>
          </mxGeometry>
        </mxCell>
        <mxCell id="_o5h41joDnnrQmcQaRRM-21" value="" style="edgeStyle=elbowEdgeStyle;elbow=horizontal;endArrow=classic;html=1;curved=0;rounded=1;endSize=8;startSize=8;fontSize=12;entryX=0;entryY=0.5;entryDx=0;entryDy=0;labelBackgroundColor=none;fontColor=default;exitX=1;exitY=0.5;exitDx=0;exitDy=0;" parent="1" source="_o5h41joDnnrQmcQaRRM-2" target="_o5h41joDnnrQmcQaRRM-8" edge="1">
          <mxGeometry width="50" height="50" relative="1" as="geometry">
            <mxPoint x="480" y="519" as="sourcePoint" />
            <mxPoint x="600" y="411" as="targetPoint" />
            <Array as="points">
              <mxPoint x="530" y="510" />
            </Array>
          </mxGeometry>
        </mxCell>
        <mxCell id="_o5h41joDnnrQmcQaRRM-22" value="" style="edgeStyle=elbowEdgeStyle;elbow=horizontal;endArrow=classic;html=1;curved=0;rounded=1;endSize=8;startSize=8;fontSize=12;entryX=0;entryY=0.5;entryDx=0;entryDy=0;labelBackgroundColor=none;fontColor=default;exitX=1;exitY=0.5;exitDx=0;exitDy=0;" parent="1" source="_o5h41joDnnrQmcQaRRM-2" target="_o5h41joDnnrQmcQaRRM-7" edge="1">
          <mxGeometry width="50" height="50" relative="1" as="geometry">
            <mxPoint x="480" y="519" as="sourcePoint" />
            <mxPoint x="600" y="627" as="targetPoint" />
            <Array as="points">
              <mxPoint x="540" y="520" />
            </Array>
          </mxGeometry>
        </mxCell>
        <mxCell id="_o5h41joDnnrQmcQaRRM-23" value="" style="edgeStyle=elbowEdgeStyle;elbow=horizontal;endArrow=classic;html=1;curved=0;rounded=1;endSize=8;startSize=8;fontSize=12;entryX=0;entryY=0.5;entryDx=0;entryDy=0;labelBackgroundColor=none;fontColor=default;exitX=1;exitY=0.5;exitDx=0;exitDy=0;" parent="1" source="_o5h41joDnnrQmcQaRRM-3" target="_o5h41joDnnrQmcQaRRM-9" edge="1">
          <mxGeometry width="50" height="50" relative="1" as="geometry">
            <mxPoint x="500" y="780" as="sourcePoint" />
            <mxPoint x="620" y="780" as="targetPoint" />
            <Array as="points">
              <mxPoint x="540" y="730" />
            </Array>
          </mxGeometry>
        </mxCell>
        <mxCell id="XB48tUagIdPG_h6vu15s-1" value="&lt;i&gt;Selective disclosure schemes&lt;/i&gt;" style="text;html=1;align=center;verticalAlign=middle;resizable=0;points=[];autosize=1;strokeColor=none;fillColor=none;fontSize=15;" vertex="1" parent="1">
          <mxGeometry x="562.49" y="780" width="220" height="30" as="geometry" />
        </mxCell>
      </root>
    </mxGraphModel>
  </diagram>
</mxfile>
